<mxfile host="app.diagrams.net" modified="2024-01-06T09:40:19.303Z" agent="Mozilla/5.0 (Windows NT 10.0; Win64; x64) AppleWebKit/537.36 (KHTML, like Gecko) Chrome/120.0.0.0 Safari/537.36" version="22.1.16" etag="02J_WT2RuA9Z909W6Nj4" type="github">
  <diagram name="페이지-1" id="6fegWbA95Jolt6n3h8CS">
    <mxGraphModel>
      <root>
        <mxCell id="0" />
        <mxCell id="1" parent="0" />
      </root>
    </mxGraphModel>
  </diagram>
</mxfile>
